<?xml version="1.0" standalone="no"?>
<!DOCTYPE svg PUBLIC "-//W3C//DTD SVG 20010904//EN"
 "http://www.w3.org/TR/2001/REC-SVG-20010904/DTD/svg10.dtd">
<svg version="1.0" xmlns="http://www.w3.org/2000/svg"
 width="250.000000pt" height="250.000000pt" viewBox="0 0 250.000000 250.000000"
 preserveAspectRatio="xMidYMid meet">
<metadata>
Created by potrace 1.14, written by Peter Selinger 2001-2017
</metadata>
<g transform="translate(0.000000,250.000000) scale(0.100000,-0.100000)"
fill="#000000" stroke="none">
<path d="M20 2487 c0 -17 79 -487 86 -514 6 -20 2 -22 -47 -25 l-54 -3 -2 -95
c-1 -89 -1 -92 10 -52 7 24 20 48 29 53 14 8 16 1 12 -74 -3 -45 -12 -124 -20
-175 -9 -54 -13 -104 -8 -120 9 -34 6 -53 -12 -73 -29 -32 -12 -35 44 -8 76
38 177 68 251 76 61 6 61 6 61 -20 0 -29 4 -27 -104 -48 -33 -6 -67 -15 -75
-19 -9 -4 -47 -20 -84 -35 -72 -29 -117 -59 -105 -70 3 -3 24 3 47 14 59 31
64 25 6 -7 -37 -20 -51 -34 -53 -52 -2 -20 -1 -22 8 -10 9 11 10 2 6 -40 -3
-30 -8 -104 -10 -165 -5 -103 -4 -106 4 -35 16 127 19 121 13 -30 -3 -80 -9
-146 -14 -148 -5 -2 -9 -10 -9 -19 0 -15 -1 -15 90 13 62 19 203 43 212 35 8
-8 -7 -90 -18 -101 -5 -4 -18 -4 -29 0 -17 7 -17 9 -2 9 9 1 17 5 17 10 0 4
-18 5 -40 1 -42 -8 -64 -19 -39 -21 18 -1 -30 -17 -56 -18 -16 -1 -17 1 -5 9
21 13 -56 0 -96 -16 -29 -12 -31 -16 -33 -73 -1 -32 2 -62 7 -65 5 -3 51 -11
101 -18 83 -11 92 -14 89 -33 -3 -22 -20 -23 -138 -14 -49 4 -55 2 -55 -15 0
-13 8 -20 30 -22 17 -2 48 -5 70 -8 22 -2 46 -5 53 -5 6 -1 12 -6 12 -12 0
-12 -88 -7 -145 7 l-25 6 2 -83 c2 -84 2 -84 5 -16 4 67 16 86 28 46 4 -12 4
-86 0 -166 -6 -120 -10 -143 -22 -139 -9 4 -13 1 -11 -6 3 -7 14 -14 26 -16
12 -2 22 -8 22 -14 0 -6 -11 -8 -23 -6 -21 4 -24 1 -25 -29 -1 -29 2 -33 24
-33 13 0 26 6 28 13 18 58 141 435 147 447 4 8 20 50 35 93 15 42 28 76 29 75
1 -2 -1 -34 -6 -73 -4 -38 -8 -140 -9 -225 0 -162 -12 -266 -31 -284 -8 -8 -9
-5 -4 12 3 12 2 22 -3 22 -5 0 -12 -10 -15 -22 -2 -13 -8 -31 -12 -41 -4 -10
-3 -17 3 -17 6 0 13 8 15 18 4 14 5 14 6 -3 2 -18 3 -18 16 5 14 25 14 25 15
3 0 -13 6 -23 14 -23 11 0 14 33 15 168 1 247 10 385 31 497 11 55 22 125 26
155 8 71 36 179 73 278 42 115 47 122 54 77 5 -30 -1 -51 -29 -106 -19 -38
-44 -107 -56 -154 -25 -102 -20 -117 38 -96 19 7 38 10 42 7 3 -4 1 -30 -5
-59 -12 -56 -9 -75 5 -37 9 24 9 24 16 -5 11 -44 -4 -207 -19 -201 -9 3 -14
-19 -18 -77 -4 -44 -5 -83 -2 -85 2 -3 11 1 19 7 21 18 11 -17 -15 -49 l-20
-25 3 88 c3 89 -8 121 -15 45 -3 -37 -4 -35 -5 15 -1 37 2 56 8 52 6 -3 10 0
11 7 0 7 4 36 9 63 7 44 2 201 -6 192 -3 -3 -28 -201 -41 -324 -3 -29 -9 -53
-14 -53 -5 0 -4 -11 1 -25 6 -15 6 -26 0 -30 -6 -4 -11 -23 -12 -43 -1 -24 -4
-14 -8 28 -4 36 -7 50 -8 32 -1 -18 -9 -40 -17 -48 -9 -10 -15 -35 -16 -67 0
-38 -3 -47 -9 -32 -6 13 -9 -18 -9 -86 l-1 -106 44 -1 44 -1 23 72 c21 63 27
72 50 75 15 2 42 -3 60 -11 27 -11 37 -23 47 -58 7 -25 10 -53 6 -62 -5 -13
-1 -17 20 -17 31 0 31 1 10 61 -21 58 -16 78 43 162 26 37 93 135 148 219 55
83 115 167 133 186 l32 35 24 -22 c13 -12 27 -21 32 -20 5 1 12 1 16 0 4 0
-18 -74 -48 -163 -30 -90 -53 -172 -51 -183 1 -11 22 36 45 105 24 69 49 139
57 155 l14 30 -5 -30 c-22 -156 -29 -255 -16 -255 8 0 42 245 42 301 0 23 5
27 38 33 82 13 79 16 87 -87 4 -50 15 -172 26 -271 10 -98 19 -196 19 -217 0
-28 4 -39 15 -39 11 0 15 11 15 39 0 31 -31 324 -43 401 -1 8 5 16 14 18 13 2
17 -10 22 -70 3 -40 11 -144 18 -231 l13 -157 223 0 224 0 -7 36 c-4 25 -3 35
4 31 11 -7 22 15 21 41 0 14 -2 13 -10 -3 -6 -15 -7 -11 -3 15 4 19 13 49 20
65 14 31 14 30 -2 -40 -5 -19 -5 -19 7 -1 6 10 13 46 14 80 1 34 14 107 29
163 41 159 47 170 79 139 14 -15 15 -31 3 -81 -18 -70 -18 -71 -2 -45 20 33
20 16 0 -50 -9 -30 -23 -60 -32 -66 -11 -8 -17 -27 -17 -52 0 -23 -3 -35 -7
-29 -6 9 -8 9 -8 0 0 -6 -3 -19 -7 -29 -5 -13 -3 -15 7 -9 10 6 12 2 7 -16 -4
-13 -7 -28 -7 -34 0 -5 -5 -3 -11 5 -8 11 -9 7 -4 -16 4 -23 2 -33 -9 -37 -20
-8 -22 -67 -3 -67 7 0 18 12 24 27 l12 28 -6 -30 c-3 -17 -3 -28 0 -25 11 10
74 210 66 210 -4 0 -17 -32 -29 -71 -12 -38 -24 -68 -26 -66 -10 9 40 168 75
242 123 254 323 465 549 579 l52 26 0 307 0 306 -54 -49 c-30 -27 -52 -55 -50
-63 2 -7 -7 -22 -22 -33 -14 -11 -23 -27 -20 -34 5 -12 -5 -18 -26 -15 -6 0
-88 -114 -88 -124 0 -2 7 -2 15 1 18 7 20 -10 2 -28 -7 -7 -16 -21 -20 -30 -3
-10 -11 -18 -17 -18 -13 0 -13 17 0 25 6 3 10 12 10 18 0 7 -7 3 -15 -7 -8
-11 -13 -28 -9 -38 3 -10 -3 -31 -12 -48 -14 -22 -21 -27 -31 -18 -10 8 -13 6
-13 -6 0 -9 -4 -16 -10 -16 -5 0 -10 -5 -10 -11 0 -6 7 -9 15 -5 13 4 14 2 5
-14 -11 -21 -30 -27 -30 -9 0 5 -5 7 -11 4 -6 -4 -8 -14 -5 -22 3 -8 1 -11 -4
-8 -6 3 -10 -1 -10 -10 0 -9 -7 -23 -15 -31 -8 -9 -15 -26 -15 -38 0 -13 -7
-29 -15 -36 -8 -7 -15 -19 -15 -26 0 -8 -4 -14 -9 -14 -10 0 -51 53 -51 65 0
9 125 238 150 275 9 14 36 54 60 90 78 117 178 246 250 323 67 72 86 103 56
91 -10 -4 -13 0 -10 13 3 10 -4 40 -15 66 -11 26 -17 47 -12 47 5 0 18 -21 29
-47 16 -35 21 -42 22 -25 0 13 -5 32 -10 43 -7 13 -7 19 0 19 15 0 12 44 -5
66 -15 18 -15 18 -9 -8 8 -34 2 -35 -28 -3 -62 66 -62 72 1 44 24 -11 46 -17
49 -14 10 10 -33 33 -71 38 -21 3 -45 11 -53 18 -13 11 -10 17 22 50 29 30 35
41 26 52 -15 18 -93 56 -171 83 -37 13 -58 23 -48 23 26 1 207 -45 252 -63 21
-9 39 -16 41 -16 2 0 4 26 4 58 l0 58 -62 12 c-35 6 -91 13 -125 16 -64 4 -83
10 -83 27 0 7 13 8 33 4 24 -5 28 -4 17 4 -8 6 -24 11 -35 11 -23 0 -52 16
-44 24 3 3 22 1 42 -5 40 -11 162 -20 153 -12 -3 3 -22 9 -43 14 -84 18 -139
30 -160 34 -24 4 -72 52 -73 71 0 7 8 15 18 19 59 24 216 75 267 86 l60 14
-90 3 c-56 2 -91 -1 -93 -8 -2 -5 -8 -8 -12 -5 -5 3 -21 -6 -36 -20 -15 -14
-35 -25 -44 -25 -10 0 -34 -7 -53 -15 -43 -18 -71 -20 -61 -4 4 8 0 8 -15 0
-25 -14 -28 -23 -4 -14 11 4 14 3 9 -6 -4 -7 -13 -10 -19 -8 -13 4 -152 -88
-207 -137 l-35 -31 30 33 c16 18 69 63 117 99 48 37 86 68 83 71 -5 6 -149
-96 -205 -146 l-45 -39 -37 25 c-21 13 -38 28 -38 32 0 16 121 119 182 156 40
25 57 40 46 42 -18 4 -81 -33 -145 -85 -41 -33 -44 -34 -95 -24 -34 6 -59 6
-71 -1 -11 -6 -23 -6 -30 0 -15 11 -111 31 -237 48 -25 3 -66 9 -92 14 -26 4
-50 5 -53 2 -11 -12 -4 -32 12 -32 9 0 14 -3 10 -6 -3 -3 -15 -3 -26 1 -18 5
-19 10 -10 27 10 18 9 20 -6 15 -9 -4 -23 0 -31 8 -9 8 -32 16 -52 17 -20 1
-47 2 -59 3 -12 0 -25 4 -29 8 -4 4 -61 7 -127 7 -116 0 -119 -1 -104 -18 24
-26 21 -32 -13 -32 -19 0 -38 10 -56 28 -19 20 -23 22 -16 7 9 -17 7 -21 -9
-22 -10 -1 -19 4 -19 11 0 7 -6 13 -12 13 -7 0 -23 3 -36 7 -22 7 -22 6 -10
-13 7 -12 19 -21 27 -21 12 0 13 -2 2 -12 -10 -11 -18 -6 -41 22 -16 19 -30
30 -30 23 0 -6 5 -15 10 -18 6 -3 10 -12 10 -18 0 -7 -10 0 -21 16 l-21 27
-226 0 -227 -1 48 -44 c27 -25 46 -49 43 -54 -7 -10 18 -33 32 -29 11 3 102
-104 102 -121 0 -6 4 -11 9 -11 5 0 17 -20 26 -45 10 -25 24 -50 31 -56 8 -7
20 -26 27 -43 19 -45 58 -157 64 -183 3 -13 9 -23 14 -23 5 0 9 -7 9 -15 0
-36 -19 -9 -50 68 -17 45 -37 87 -42 92 -8 7 -9 4 -3 -10 52 -132 74 -193 75
-208 0 -31 -17 -10 -30 38 -19 68 -24 46 -6 -25 15 -57 15 -70 0 -149 -17 -88
-16 -245 2 -272 16 -25 3 -119 -25 -181 l-28 -61 -6 179 c-4 99 -13 213 -22
254 -43 213 -127 414 -230 549 -61 80 -58 71 -92 309 -3 26 -11 42 -19 42 -8
0 -14 -6 -14 -13z m529 -11 c10 -12 -1 -25 -56 -69 -37 -30 -84 -71 -102 -91
-40 -42 -46 -43 -62 -15 -13 26 3 46 109 130 77 62 92 68 111 45z m324 7 c-7
-2 -21 -2 -30 0 -10 3 -4 5 12 5 17 0 24 -2 18 -5z m161 -24 c14 -6 -1 -7 -44
-3 -36 3 -72 10 -80 16 -19 12 94 0 124 -13z m71 -19 c3 -5 -1 -10 -9 -10 -8
0 -18 5 -21 10 -3 6 1 10 9 10 8 0 18 -4 21 -10z m-295 -20 c76 -17 187 -80
140 -80 -6 0 -28 -11 -51 -25 -22 -14 -45 -23 -51 -19 -7 4 -8 3 -4 -4 4 -8
-3 -16 -19 -22 -15 -6 -33 -17 -42 -25 -8 -8 -19 -13 -24 -9 -5 3 -8 1 -7 -4
2 -5 -34 -48 -80 -97 l-83 -88 -45 32 c-25 17 -49 31 -54 31 -5 0 -12 5 -16
12 -4 7 -3 8 4 4 7 -4 12 -3 12 3 0 6 18 20 39 31 58 29 65 47 30 84 -16 17
-29 34 -29 38 0 8 45 30 103 49 43 15 45 24 16 55 l-22 23 24 5 c75 17 104 18
159 6z m-230 -10 c-8 -6 -24 -15 -35 -21 -16 -8 -15 -6 4 10 13 12 28 21 35
21 6 0 4 -5 -4 -10z m1113 -37 c-7 -2 -19 -2 -25 0 -7 3 -2 5 12 5 14 0 19 -2
13 -5z m407 -1 c0 -4 25 -41 56 -82 89 -120 96 -130 85 -130 -5 0 -12 8 -16
18 -6 20 -75 96 -81 89 -7 -7 17 -67 27 -67 5 0 9 -4 9 -10 0 -5 -13 -10 -30
-10 -16 0 -30 4 -30 10 0 5 7 7 15 4 23 -9 18 15 -10 52 -28 37 -33 53 -10 34
27 -23 28 -2 1 30 -14 17 -26 36 -26 41 0 5 -4 9 -10 9 -16 0 -12 -27 5 -34 8
-3 15 -13 15 -22 0 -14 -2 -15 -17 -3 -15 13 -15 12 -2 -8 21 -35 3 -38 -30
-4 -18 18 -28 37 -25 46 4 8 10 13 14 10 4 -3 10 4 13 15 5 19 47 30 47 12z
m-1685 -67 c-30 -32 -55 -55 -55 -50 0 10 102 116 107 112 1 -2 -22 -30 -52
-62z m980 55 c28 -6 65 -13 84 -15 19 -3 40 -9 45 -14 6 -5 23 -11 39 -15 47
-11 177 -77 172 -87 -4 -5 0 -6 7 -4 18 7 228 -197 228 -222 0 -3 13 -34 29
-67 45 -92 87 -285 84 -381 -1 -59 -30 -233 -41 -250 -4 -5 -7 -12 -7 -15 -1
-16 -29 -70 -36 -70 -5 0 -6 -6 -3 -13 2 -7 -4 -22 -16 -32 -11 -10 -20 -22
-20 -27 0 -5 -16 -26 -35 -46 -19 -20 -35 -40 -35 -44 0 -5 -5 -8 -11 -8 -6 0
-2 12 9 27 41 60 76 193 50 193 -4 0 -8 8 -8 19 0 10 -9 30 -21 44 -15 20 -27
26 -50 23 -24 -3 -30 1 -35 20 -3 13 -10 24 -14 24 -10 0 -17 -28 -26 -105 -3
-33 -8 -63 -11 -67 -7 -13 -63 21 -63 38 0 9 -5 12 -12 8 -7 -5 -9 -2 -5 9 4
10 2 14 -6 11 -16 -6 -111 91 -103 105 4 7 1 9 -8 5 -9 -3 -19 3 -26 16 -6 12
-21 31 -32 42 -11 11 -17 26 -14 34 3 9 2 12 -5 9 -12 -8 -25 7 -85 104 -32
52 -40 72 -27 67 10 -4 23 -8 28 -9 34 -6 155 -102 155 -123 0 -20 29 -39 42
-26 8 8 4 19 -13 40 -13 16 -32 41 -42 55 -10 14 -32 31 -48 38 -18 7 -28 17
-25 25 3 8 0 11 -8 8 -7 -3 -40 4 -72 15 -56 19 -60 22 -94 88 -47 89 -100
222 -104 259 -2 17 -10 30 -20 32 -9 2 -14 8 -10 13 3 5 -20 -4 -50 -21 -31
-16 -63 -30 -71 -30 -8 0 -15 -4 -15 -10 0 -5 -7 -10 -17 -10 -9 0 -31 -11
-49 -25 -18 -14 -36 -25 -39 -25 -4 0 -18 -9 -32 -20 -14 -11 -30 -17 -36 -13
-6 4 -7 1 -3 -6 5 -8 0 -14 -13 -18 -12 -3 -21 -9 -21 -14 0 -6 -8 -13 -17
-16 -9 -4 -24 -14 -33 -23 -12 -12 -28 -15 -70 -10 -40 4 -67 1 -97 -11 -22
-10 -45 -14 -49 -11 -4 4 -4 2 0 -5 3 -6 2 -14 -4 -18 -5 -3 -14 -14 -19 -23
-7 -14 -5 -18 10 -18 10 0 19 3 19 7 0 17 58 42 108 45 l56 4 -44 -47 c-75
-77 -124 -134 -129 -148 -4 -9 -17 -31 -70 -115 l-23 -35 6 95 c2 52 12 131
22 175 62 296 381 599 641 609 18 0 33 3 33 6 0 10 176 10 225 0z m608 -87
c-7 -2 -19 -2 -25 0 -7 3 -2 5 12 5 14 0 19 -2 13 -5z m32 -3 c3 -5 1 -10 -4
-10 -6 0 -11 5 -11 10 0 6 2 10 4 10 3 0 8 -4 11 -10z m79 -25 c3 -9 0 -15 -9
-15 -8 0 -15 7 -15 15 0 8 4 15 9 15 5 0 11 -7 15 -15z m-115 -89 c-11 -9 -99
-15 -99 -6 0 6 23 10 52 10 28 0 49 -2 47 -4z m94 -3 c-7 -2 -19 -2 -25 0 -7
3 -2 5 12 5 14 0 19 -2 13 -5z m75 -10 c-10 -2 -26 -2 -35 0 -10 3 -2 5 17 5
19 0 27 -2 18 -5z m26 -40 c66 -16 180 -65 189 -81 4 -5 -11 -22 -33 -37 l-40
-27 41 -47 c54 -60 65 -81 44 -81 -9 0 -26 -9 -38 -20 -12 -11 -28 -18 -36
-15 -9 3 -12 3 -8 -1 4 -4 -1 -12 -10 -19 -15 -11 -15 -15 4 -46 11 -19 24
-44 28 -57 7 -23 6 -23 -67 -21 -58 2 -183 24 -156 28 3 1 0 24 -8 53 -7 29
-12 54 -9 56 2 2 -5 24 -16 48 -10 25 -18 48 -17 52 3 10 -52 124 -69 144 -8
9 -12 22 -7 29 4 7 3 10 -3 6 -6 -4 -16 0 -23 8 -7 8 -9 15 -4 15 5 0 0 6 -11
13 -19 11 -17 12 15 18 47 9 162 1 234 -18z m-2004 -63 c0 -3 -13 -12 -29 -22
-26 -14 -30 -14 -35 -1 -11 27 -6 52 12 62 13 8 21 5 34 -12 10 -12 18 -24 18
-27z m1001 -52 c12 -35 44 -109 70 -165 l48 -103 -39 -6 c-43 -7 -79 -28 -68
-40 5 -4 19 -2 33 4 14 7 41 12 60 12 31 0 37 -6 85 -81 29 -45 78 -116 110
-158 59 -78 241 -261 260 -261 14 0 12 -27 -4 -53 -26 -39 -24 -97 2 -97 51 0
104 117 71 156 -10 13 -10 17 2 25 20 13 29 11 29 -6 0 -8 7 -15 15 -15 22 0
18 37 -4 50 -11 5 -27 7 -35 4 -12 -5 -16 0 -16 18 0 32 18 48 52 48 21 0 31
-6 38 -26 42 -110 -72 -301 -191 -320 -30 -5 -53 -20 -102 -68 -139 -139 -352
-215 -540 -195 -151 17 -231 46 -355 131 -88 60 -183 176 -210 257 -26 76 -8
340 27 410 51 99 203 284 238 289 11 2 34 -9 51 -23 20 -16 33 -22 37 -15 4 6
5 12 4 14 -2 1 -19 14 -37 28 l-32 27 76 56 c73 55 267 165 290 165 6 0 22
-28 35 -62z m-1091 -125 c0 -5 -5 -15 -10 -23 -8 -12 -10 -11 -10 8 0 12 5 22
10 22 6 0 10 -3 10 -7z m205 -70 c5 -17 3 -22 -7 -18 -8 3 -31 -13 -53 -37
-30 -31 -26 -39 5 -8 3 3 14 11 25 19 11 8 -4 -10 -34 -40 -56 -55 -111 -157
-111 -203 0 -24 -34 -75 -44 -66 -9 9 13 140 28 169 8 14 20 41 27 59 14 39
138 168 149 155 4 -4 11 -18 15 -30z m-104 -176 c-10 -9 -11 -8 -5 6 3 10 9
15 12 12 3 -3 0 -11 -7 -18z m1989 -17 c19 -26 70 -133 70 -146 0 -3 -4 -2
-10 1 -6 3 -7 -1 -4 -9 3 -9 3 -16 0 -16 -11 0 -24 45 -16 50 5 3 2 16 -6 30
-15 25 -15 25 -8 1 4 -17 3 -21 -6 -16 -7 4 -9 17 -6 31 5 17 2 24 -8 24 -13
0 -56 57 -56 74 0 17 31 3 50 -24z m92 -45 c31 -63 32 -66 16 -92 -25 -42 -35
-38 -32 14 1 30 -5 65 -17 92 -22 51 -22 51 -9 51 6 0 25 -29 42 -65z m-1924
-27 c-2 -18 -10 -24 -38 -26 l-35 -3 29 25 c36 32 48 33 44 4z m-301 -90 c-3
-8 -6 -5 -6 6 -1 11 2 17 5 13 3 -3 4 -12 1 -19z m238 -43 c-16 -8 -39 -14
-50 -14 -13 0 -8 5 15 14 46 18 74 17 35 0z m2128 -165 c34 -113 42 -154 28
-146 -13 8 -14 -35 -2 -107 7 -44 6 -50 -15 -64 -29 -19 -44 -10 -44 26 0 38
-35 205 -54 261 -15 43 -14 44 16 87 16 25 34 41 38 36 4 -4 19 -46 33 -93z
m-2229 36 c-8 -29 -15 -75 -16 -102 -2 -27 -6 -51 -9 -54 -12 -10 -21 -160
-10 -160 6 0 11 -7 11 -15 0 -8 -4 -15 -10 -15 -5 0 -10 -15 -10 -34 0 -33
-14 -55 -27 -42 -8 7 16 361 28 416 10 43 22 60 46 60 8 0 7 -14 -3 -54z m184
-39 c2 -66 -8 -97 -31 -98 l-22 0 23 -9 c31 -13 28 -28 -5 -23 -26 4 -26 3 -8
-8 28 -17 28 -17 21 -28 -7 -11 -128 19 -127 32 1 4 1 24 1 45 0 38 0 38 38
35 l37 -3 -34 13 c-19 7 -37 19 -39 26 -4 13 -1 13 83 -5 11 -2 7 3 -10 11
-16 8 -38 14 -47 15 -10 0 -18 5 -18 10 0 6 8 10 18 10 13 0 14 2 3 9 -7 5
-11 13 -7 19 4 6 26 5 64 -5 56 -14 59 -16 60 -46z m-307 -59 c-8 -30 -9 -28
-10 28 -1 33 2 64 7 68 11 12 14 -58 3 -96z m2386 50 c-3 -7 -5 -2 -5 12 0 14
2 19 5 13 2 -7 2 -19 0 -25z m-374 -4 c10 -13 17 -29 15 -34 -2 -5 -13 6 -26
25 -25 40 -16 47 11 9z m-18 -44 l7 -35 -25 24 c-22 19 -24 27 -16 43 13 25
25 14 34 -32z m-265 -34 c-6 -19 -18 -40 -27 -48 -15 -12 -16 -10 -9 16 8 32
36 79 43 72 3 -3 0 -20 -7 -40z m-1714 -38 c-4 -40 -12 -107 -18 -148 -6 -41
-10 -85 -10 -98 0 -12 -5 -25 -10 -28 -6 -4 -8 35 -4 107 9 159 16 206 27 188
6 -10 9 -5 9 19 0 17 3 32 6 32 3 0 3 -33 0 -72z m1955 50 c10 -13 18 -30 18
-38 0 -9 -9 -4 -24 15 -24 29 -31 45 -19 45 3 0 14 -10 25 -22z m-2004 -25
c-3 -10 -5 -4 -5 12 0 17 2 24 5 18 2 -7 2 -21 0 -30z m491 -149 c18 -21 46
-54 62 -72 17 -18 30 -37 30 -42 0 -5 5 -12 12 -16 7 -5 8 -3 3 6 -5 8 10 -1
33 -19 22 -18 38 -39 36 -46 -3 -7 -1 -16 5 -20 7 -3 8 0 5 9 -3 9 -1 16 4 16
27 0 20 -25 -19 -71 -40 -48 -44 -50 -56 -33 -8 10 -19 37 -25 59 -16 56 -20
58 -57 30 -26 -18 -38 -22 -52 -14 -15 8 -17 6 -12 -7 4 -12 3 -15 -5 -10 -7
4 -12 31 -12 61 0 43 -4 56 -19 65 -13 6 -21 6 -23 0 -2 -6 -13 -12 -26 -15
-18 -3 -22 1 -22 23 0 42 25 123 51 166 l23 40 16 -36 c8 -19 30 -53 48 -74z
m-226 75 c45 -10 67 -29 33 -29 -43 0 -115 23 -115 37 0 10 6 13 17 8 10 -3
39 -11 65 -16z m2165 -11 c-3 -7 -5 -2 -5 12 0 14 2 19 5 13 2 -7 2 -19 0 -25z
m-204 -86 c16 -17 18 -25 9 -31 -10 -6 -10 -18 -2 -57 10 -42 9 -50 -6 -61
-10 -7 -20 -13 -23 -13 -4 0 -23 45 -45 99 l-38 100 22 36 23 36 19 -43 c11
-24 29 -53 41 -66z m-1984 64 c68 -15 84 -40 19 -30 -59 9 -90 22 -83 34 3 5
7 10 8 10 1 -1 26 -7 56 -14z m14 -41 c41 -7 52 -34 15 -36 -18 -1 -19 -2 -5
-6 26 -7 14 -28 -14 -26 l-24 3 25 -14 c22 -13 23 -15 7 -21 -9 -4 -29 -5 -42
-3 -14 3 -25 1 -25 -3 0 -22 -16 -6 -18 17 -2 22 1 25 18 21 11 -3 18 -1 14 4
-3 5 -12 9 -20 9 -8 0 -14 6 -14 14 0 11 10 14 38 10 l37 -4 -35 11 c-42 13
-44 15 -35 29 4 6 14 9 23 6 10 -2 34 -7 55 -11z m1582 -29 c41 -31 107 -118
139 -182 26 -52 34 -90 17 -80 -20 13 -131 23 -132 12 0 -6 0 -41 1 -78 1 -62
0 -67 -17 -61 -10 3 -25 12 -34 20 -9 7 -19 10 -22 6 -4 -3 -15 1 -24 10 -18
15 -22 17 -44 17 -6 0 -8 7 -5 16 3 8 2 13 -3 10 -4 -3 -11 -30 -15 -60 -7
-63 -14 -86 -27 -86 -10 0 -66 57 -114 116 -16 20 -45 65 -64 100 -27 52 -31
67 -21 79 7 8 16 12 21 9 5 -3 9 0 9 6 0 14 108 63 121 55 5 -4 9 -2 9 3 0 5
21 21 48 35 26 14 61 38 77 51 37 31 41 31 80 2z m-135 0 c0 -5 -90 -56 -98
-56 -18 0 45 50 67 53 14 2 27 5 29 6 1 0 2 -1 2 -3z m-1573 -78 c-3 -7 -5 -2
-5 12 0 14 2 19 5 13 2 -7 2 -19 0 -25z m2053 -81 c0 -21 -22 -37 -54 -38 -17
-1 -23 -3 -13 -6 22 -6 22 -15 -4 -36 -28 -25 -73 -19 -77 9 -4 27 39 60 94
73 54 13 54 13 54 -2z m-716 -118 c23 -97 20 -141 -4 -62 -10 34 -29 80 -41
103 -20 35 -21 43 -9 50 22 14 36 -11 54 -91z m-728 42 c-4 -6 -16 -16 -27
-22 -20 -10 -20 -10 -4 21 12 22 20 29 27 22 6 -6 7 -15 4 -21z m-676 5 c0 -2
-7 -7 -16 -10 -8 -3 -12 -2 -9 4 6 10 25 14 25 6z m169 -19 c-9 -7 -14 -18
-12 -24 3 -7 0 -13 -6 -13 -6 0 -11 -6 -11 -14 0 -9 -7 -12 -20 -9 -24 6 -28
53 -5 53 8 0 15 5 15 10 0 6 12 10 28 10 23 -1 25 -2 11 -13z m312 -2 c19 -11
32 -26 36 -45 6 -34 14 -36 49 -14 28 19 43 12 25 -10 -7 -8 -19 -12 -27 -9
-9 3 -12 0 -9 -8 7 -20 -85 -116 -118 -124 -27 -5 -28 -4 -25 27 3 29 7 33 33
36 83 7 98 27 22 27 l-42 0 4 60 c5 83 5 84 52 60z m492 -16 c61 -7 107 -7
154 0 37 6 69 9 71 7 2 -2 -21 -15 -50 -29 -39 -17 -58 -22 -71 -15 -11 6 -45
7 -78 3 -42 -5 -64 -3 -74 5 -9 7 -18 10 -22 6 -3 -3 -13 0 -22 8 -9 8 -25 16
-35 17 -11 2 -21 9 -23 16 -3 9 4 10 29 2 18 -5 72 -14 121 -20z m-903 3 c0
-4 -7 -18 -16 -30 -10 -15 -14 -32 -10 -48 6 -22 4 -25 -16 -22 -19 2 -24 10
-26 46 -3 36 0 44 20 51 29 12 48 13 48 3z m1940 -9 c0 -5 -11 -20 -25 -35
-19 -23 -30 -27 -57 -23 -28 5 -30 4 -10 -4 12 -6 22 -14 22 -18 0 -10 -122
-194 -126 -190 -10 10 75 237 88 237 5 0 7 4 4 8 -2 4 10 6 28 4 21 -2 37 2
45 12 14 17 31 21 31 9z m-2060 -49 c0 -24 -4 -34 -12 -31 -7 2 -13 9 -12 15
1 7 2 21 3 32 2 35 21 21 21 -16z m180 -13 c0 -16 -12 -41 -20 -41 -4 0 -7 11
-7 25 0 15 5 25 13 25 8 0 14 -4 14 -9z m1359 -55 c23 -32 27 -46 18 -55 -6
-6 -8 -11 -4 -11 4 0 0 -16 -8 -36 -8 -20 -15 -55 -16 -78 l-1 -41 -13 48
c-14 52 -24 228 -13 221 4 -3 21 -24 37 -48z m199 -19 c2 -15 -13 -92 -33
-172 -37 -147 -73 -262 -74 -235 -1 18 28 160 35 171 8 13 44 211 44 242 0 37
24 31 28 -6z m-1341 -99 c-2 -13 -4 -5 -4 17 -1 22 1 32 4 23 2 -10 2 -28 0
-40z m93 28 c0 -2 -7 -6 -15 -10 -8 -3 -15 -1 -15 4 0 6 7 10 15 10 8 0 15 -2
15 -4z m1087 -18 c-3 -8 -6 -5 -6 6 -1 11 2 17 5 13 3 -3 4 -12 1 -19z m270
-10 c-3 -8 -6 -5 -6 6 -1 11 2 17 5 13 3 -3 4 -12 1 -19z m-172 -35 c-7 -37
-16 -62 -40 -103 -8 -14 -20 -51 -27 -82 -7 -32 -16 -58 -20 -58 -5 0 -6 10
-3 23 6 25 55 260 55 263 0 1 9 0 21 -3 18 -5 20 -11 14 -40z m-1613 -55 c4
-71 -5 -123 -25 -143 -7 -7 -8 -4 -3 8 3 10 6 61 6 113 0 111 16 126 22 22z
m1529 47 c12 8 11 -11 -1 -57 -6 -21 -16 -37 -23 -35 -7 1 -11 -6 -9 -18 2
-13 0 -16 -6 -10 -5 6 -7 30 -4 55 4 35 7 41 13 25 6 -15 8 -8 9 25 1 25 4 37
7 27 2 -9 9 -15 14 -12z m28 -242 c-6 -32 -14 -52 -17 -44 -2 7 1 39 8 70 7
31 15 50 17 44 3 -7 -1 -39 -8 -70z m-1302 -65 c-3 -7 -5 -2 -5 12 0 14 2 19
5 13 2 -7 2 -19 0 -25z m-50 -50 c-3 -8 -6 -5 -6 6 -1 11 2 17 5 13 3 -3 4
-12 1 -19z"/>
<path d="M1020 2290 c-9 -6 -10 -10 -3 -10 6 0 15 5 18 10 8 12 4 12 -15 0z"/>
<path d="M1026 2058 c3 -4 11 -5 19 -1 21 7 19 12 -4 10 -11 0 -18 -5 -15 -9z"/>
<path d="M1614 2009 c-5 -8 -3 -9 6 -4 7 4 16 2 22 -6 8 -12 9 -12 6 0 -6 20
-24 25 -34 10z"/>
<path d="M1976 1933 c-6 -14 -5 -15 5 -6 7 7 10 15 7 18 -3 3 -9 -2 -12 -12z"/>
<path d="M1966 1193 c-6 -14 -5 -15 5 -6 7 7 10 15 7 18 -3 3 -9 -2 -12 -12z"/>
<path d="M663 1601 c-48 -22 -87 -75 -109 -147 -18 -62 -19 -124 0 -124 9 0
16 20 20 62 9 71 31 121 76 163 29 27 37 30 101 30 45 0 69 4 69 11 0 30 -96
32 -157 5z"/>
<path d="M682 1534 c-51 -35 -71 -138 -39 -200 20 -39 68 -61 105 -48 46 16
72 68 72 141 0 58 -3 68 -29 94 -33 33 -74 38 -109 13z m88 -59 c0 -25 -23
-35 -35 -15 -10 16 2 40 20 40 9 0 15 -9 15 -25z"/>
<path d="M1218 1515 c-14 -15 4 -25 44 -25 89 0 163 -64 190 -164 9 -34 9 -62
0 -118 -12 -77 -1 -113 16 -56 44 138 3 280 -98 337 -41 23 -139 39 -152 26z"/>
<path d="M1230 1427 c-71 -36 -95 -158 -42 -217 34 -38 90 -50 127 -26 36 24
58 73 58 134 0 47 -4 57 -34 88 -35 37 -66 43 -109 21z m88 -65 c4 -25 -19
-30 -37 -9 -8 10 -7 17 1 25 17 17 32 10 36 -16z"/>
<path d="M790 941 c0 -5 19 -15 43 -21 42 -11 186 -53 241 -71 18 -6 33 -6 39
0 5 5 -42 25 -119 49 -151 48 -204 59 -204 43z"/>
<path d="M350 1200 c0 -5 5 -10 11 -10 5 0 7 5 4 10 -3 6 -8 10 -11 10 -2 0
-4 -4 -4 -10z"/>
<path d="M298 1133 c7 -3 16 -2 19 1 4 3 -2 6 -13 5 -11 0 -14 -3 -6 -6z"/>
<path d="M269 1104 c18 -8 36 -13 39 -10 8 9 0 13 -38 19 l-35 6 34 -15z"/>
<path d="M485 881 c-3 -5 -2 -12 3 -15 5 -3 9 1 9 9 0 17 -3 19 -12 6z"/>
<path d="M510 820 c-9 -6 -10 -10 -3 -10 6 0 15 5 18 10 8 12 4 12 -15 0z"/>
<path d="M500 785 c7 -9 15 -13 17 -11 7 7 -7 26 -19 26 -6 0 -6 -6 2 -15z"/>
<path d="M660 781 c0 -5 7 -11 14 -14 10 -4 13 -1 9 9 -6 15 -23 19 -23 5z"/>
<path d="M1834 629 c-3 -6 -2 -15 3 -20 5 -5 9 -1 9 11 0 23 -2 24 -12 9z"/>
<path d="M600 600 c19 -13 30 -13 30 0 0 6 -10 10 -22 10 -19 0 -20 -2 -8 -10z"/>
<path d="M97 2453 c42 -51 81 -93 88 -93 17 0 -3 30 -52 81 -69 71 -89 77 -36
12z"/>
<path d="M746 2487 c3 -10 9 -15 12 -12 3 3 0 11 -7 18 -10 9 -11 8 -5 -6z"/>
<path d="M2114 2454 c-17 -14 -17 -15 -1 -10 10 3 25 6 33 6 8 0 14 5 14 10 0
15 -24 12 -46 -6z"/>
<path d="M186 2338 c26 -45 67 -99 71 -94 5 5 -65 106 -73 106 -3 0 -2 -6 2
-12z"/>
<path d="M230 2342 c0 -5 11 -26 25 -46 14 -20 25 -41 25 -45 0 -5 7 -11 15
-15 12 -4 13 -2 6 13 -6 10 -8 21 -6 25 3 3 2 4 -2 1 -8 -6 -33 14 -33 27 0 5
6 6 13 2 7 -5 6 2 -4 16 -17 25 -39 38 -39 22z"/>
<path d="M2317 2229 c7 -7 15 -10 18 -7 3 3 -2 9 -12 12 -14 6 -15 5 -6 -5z"/>
<path d="M2458 2233 c7 -3 16 -2 19 1 4 3 -2 6 -13 5 -11 0 -14 -3 -6 -6z"/>
<path d="M270 2224 c0 -6 7 -19 15 -30 8 -10 14 -14 14 -9 0 6 -6 19 -14 29
-8 11 -15 15 -15 10z"/>
<path d="M2400 2210 c8 -5 24 -9 35 -9 l20 0 -20 9 c-11 5 -27 9 -35 9 -13 1
-13 0 0 -9z"/>
<path d="M20 2040 c-24 -8 -23 -8 8 -9 17 -1 32 4 32 9 0 11 -5 11 -40 0z"/>
<path d="M431 1924 c0 -11 3 -14 6 -6 3 7 2 16 -1 19 -3 4 -6 -2 -5 -13z"/>
<path d="M2448 770 c-21 -10 -40 -14 -44 -9 -9 16 -25 10 -22 -8 4 -29 -11
-46 -28 -32 -11 9 -14 8 -14 -2 0 -8 -20 -27 -44 -44 -24 -16 -53 -44 -65 -61
-28 -40 -76 -94 -84 -94 -16 0 -5 24 24 51 17 16 29 34 27 41 -3 7 -19 -7 -37
-32 -18 -25 -38 -44 -43 -42 -12 3 -48 -27 -48 -40 0 -5 6 -6 13 -1 6 4 3 -6
-7 -22 -11 -17 -30 -46 -42 -65 -13 -19 -26 -47 -29 -63 -4 -15 -11 -30 -16
-33 -5 -3 -9 -17 -9 -32 -1 -15 -12 -52 -26 -82 -14 -30 -22 -44 -19 -30 3 14
8 39 11 55 l5 30 -14 -30 c-8 -16 -13 -43 -11 -60 3 -36 -24 -127 -36 -120 -4
3 -7 -6 -6 -20 2 -47 29 -22 49 45 10 36 21 67 22 69 4 4 96 -29 107 -39 5 -3
-9 -23 -30 -43 -35 -35 -39 -36 -38 -15 1 13 -6 24 -15 26 -21 4 -49 -24 -49
-49 0 -15 7 -19 38 -19 32 0 45 7 82 46 82 83 266 185 392 218 29 7 54 19 56
25 2 7 -3 11 -14 9 -15 -3 -17 4 -15 52 1 30 9 100 17 155 15 107 19 285 7
285 -5 -1 -25 -9 -45 -20z m7 -112 c-18 -214 -20 -248 -13 -248 10 0 10 -55 2
-99 -5 -21 -11 -30 -20 -27 -7 3 -16 1 -19 -4 -4 -6 -13 -10 -21 -10 -8 0 -13
4 -10 9 3 4 8 46 10 92 3 46 8 141 12 212 7 124 7 128 33 141 14 8 28 14 30
15 1 1 0 -36 -4 -81z m-95 -61 c0 -27 -4 -56 -9 -65 -14 -27 -25 -242 -13
-242 6 0 11 8 10 18 -1 70 6 163 11 147 3 -11 5 -59 3 -107 -3 -75 -6 -87 -23
-91 -10 -3 -17 -2 -15 2 3 4 1 13 -4 20 -5 10 -10 5 -15 -17 -3 -17 -13 -33
-22 -36 -13 -5 -14 0 -9 27 3 18 8 109 11 201 l5 167 28 24 c33 28 42 19 42
-48z m-90 -17 c0 -5 -5 -10 -11 -10 -8 0 -8 -4 0 -14 8 -9 10 -54 6 -142 -7
-169 -11 -187 -38 -179 -103 30 -190 62 -194 71 -7 19 76 135 150 212 70 70
87 83 87 62z m-172 -123 c-24 -30 -48 -62 -54 -73 -7 -10 -14 -16 -18 -13 -7
7 92 139 105 139 5 0 -10 -24 -33 -53z m269 31 c-3 -8 -6 -5 -6 6 -1 11 2 17
5 13 3 -3 4 -12 1 -19z m-254 -238 c48 -16 93 -30 101 -30 33 0 23 -19 -23
-44 -56 -30 -62 -31 -55 -12 5 13 -58 28 -126 30 -17 1 -24 6 -22 16 5 28 24
70 32 70 4 0 46 -13 93 -30z m-62 -92 c37 -12 66 -25 63 -29 -4 -7 -48 8 -129
41 -40 17 0 10 66 -12z"/>
<path d="M932 590 c-6 -16 -20 -40 -32 -52 -25 -27 -80 -138 -80 -162 0 -9 5
-16 11 -16 8 0 8 -4 0 -14 -7 -8 -8 -17 -3 -20 16 -9 28 13 70 125 22 58 47
120 56 137 14 27 14 32 2 32 -8 0 -19 -13 -24 -30z m-69 -175 c-3 -9 -8 -14
-10 -11 -3 3 -2 9 2 15 9 16 15 13 8 -4z"/>
<path d="M2021 444 c-19 -24 -32 -47 -29 -50 3 -2 18 12 34 33 15 21 32 40 36
41 10 5 10 22 1 22 -5 0 -23 -21 -42 -46z"/>
<path d="M1956 364 c-9 -9 -15 -19 -12 -21 3 -3 13 2 22 11 9 9 14 19 11 22
-2 3 -12 -3 -21 -12z"/>
<path d="M1906 294 c-5 -14 -4 -15 9 -4 17 14 19 20 6 20 -5 0 -12 -7 -15 -16z"/>
<path d="M2470 230 c-20 -12 -5 -24 16 -12 9 5 12 12 7 15 -5 3 -15 2 -23 -3z"/>
<path d="M2373 202 c-24 -9 -43 -22 -43 -28 0 -7 -5 -16 -12 -20 -6 -4 -8 -3
-4 4 3 6 3 13 -2 16 -5 3 -9 0 -9 -7 -1 -27 -9 -42 -26 -49 -10 -4 -16 -12
-12 -18 3 -5 0 -7 -8 -4 -8 3 -18 0 -23 -7 -5 -8 -3 -10 6 -4 9 6 11 4 6 -4
-5 -7 -10 -10 -13 -7 -11 10 -42 -14 -56 -44 -12 -24 -13 -30 -2 -30 7 0 18 7
25 15 7 8 16 15 21 15 5 0 6 -7 3 -15 -4 -8 -2 -15 4 -15 5 0 13 8 17 17 6 16
8 16 18 2 9 -12 35 -16 115 -18 94 -2 103 -1 100 16 -2 9 -14 21 -28 25 -18 6
-14 7 14 3 57 -6 32 9 -47 30 -37 10 -70 22 -73 26 -2 5 8 15 23 22 41 21 90
30 98 18 13 -22 35 -11 35 18 0 22 -6 30 -25 35 -14 4 -25 11 -25 16 0 14 -28
11 -77 -8z m14 -34 c-3 -8 -6 -5 -6 6 -1 11 2 17 5 13 3 -3 4 -12 1 -19z m8
-104 c29 -14 29 -14 3 -9 -15 3 -37 1 -50 -4 -28 -10 -78 -3 -78 11 0 6 9 8
21 5 15 -4 19 -2 15 8 -6 17 40 11 89 -11z"/>
<path d="M1890 165 c0 -8 2 -15 4 -15 2 0 6 7 10 15 3 8 1 15 -4 15 -6 0 -10
-7 -10 -15z"/>
<path d="M174 124 c-3 -10 -12 -36 -20 -57 -8 -20 -14 -45 -13 -55 0 -9 11 14
25 52 13 38 22 72 19 74 -2 3 -7 -4 -11 -14z"/>
<path d="M1877 123 c-2 -4 -7 -21 -10 -38 -6 -30 -6 -30 9 4 8 18 13 35 11 38
-3 2 -7 1 -10 -4z"/>
<path d="M1756 99 c-13 -37 -25 -93 -21 -97 2 -2 11 20 19 49 9 29 14 55 11
57 -2 3 -7 -1 -9 -9z"/>
<path d="M2149 80 c-25 -16 -56 -41 -69 -56 -20 -23 -17 -21 20 8 67 52 80 56
35 9 -54 -56 -38 -52 26 7 60 56 53 75 -12 32z"/>
<path d="M128 87 c-8 -6 -21 -27 -27 -46 -15 -45 -14 -49 4 -25 13 16 14 16 9
2 -3 -10 -4 -18 -1 -18 6 0 38 92 34 97 -2 1 -10 -3 -19 -10z"/>
<path d="M1846 35 c-3 -9 -6 -22 -5 -28 0 -7 5 -1 10 12 5 13 8 26 5 28 -2 2
-6 -3 -10 -12z"/>
<path d="M740 10 c0 -5 12 -10 26 -10 14 0 23 4 19 10 -3 6 -15 10 -26 10 -10
0 -19 -4 -19 -10z"/>
<path d="M815 10 c-3 -5 1 -10 10 -10 9 0 13 5 10 10 -3 6 -8 10 -10 10 -2 0
-7 -4 -10 -10z"/>
</g>
</svg>
